<svg xmlns="http://www.w3.org/2000/svg" xmlns:xlink="http://www.w3.org/1999/xlink" width="75" height="75" viewBox="0 0 75 75"><defs><style>.cls-1{fill:url(#linear-gradient);}.cls-2{fill:#fff;}</style><linearGradient id="linear-gradient" x1="57.11" y1="9.52" x2="16.67" y2="67.23" gradientUnits="userSpaceOnUse"><stop offset="0" stop-color="#62bdc8"/><stop offset="0.48" stop-color="#517daf"/><stop offset="1" stop-color="#555ccf"/></linearGradient></defs><title>github</title><g id="Layer_2" data-name="Layer 2"><g id="Layer_1-2" data-name="Layer 1"><rect class="cls-1" width="75" height="75" rx="8.04"/><path class="cls-2" d="M30.6,57.32a2.18,2.18,0,0,0,1.78-1.24c0-.07,0-.67,0-1.81s0-2.14,0-3l-.78.14a10,10,0,0,1-1.86.11,14.81,14.81,0,0,1-2.33-.23,5.3,5.3,0,0,1-2.25-1,4.22,4.22,0,0,1-1.47-2.06l-.34-.77a7.91,7.91,0,0,0-1.05-1.71,4.19,4.19,0,0,0-1.46-1.28l-.24-.17a2,2,0,0,1-.43-.4,1.81,1.81,0,0,1-.31-.47c-.06-.16,0-.28.17-.39a2.18,2.18,0,0,1,1-.15l.67.1a4.89,4.89,0,0,1,1.67.81,5.41,5.41,0,0,1,1.62,1.74,6,6,0,0,0,1.86,2.1,4,4,0,0,0,2.2.72,8.85,8.85,0,0,0,1.91-.17,6.69,6.69,0,0,0,1.51-.5,5.38,5.38,0,0,1,1.65-3.45,23.44,23.44,0,0,1-3.44-.61,13.37,13.37,0,0,1-3.15-1.31,8.94,8.94,0,0,1-2.71-2.25A10.82,10.82,0,0,1,23,36.55a16.68,16.68,0,0,1-.68-5A9.76,9.76,0,0,1,25,24.61a9,9,0,0,1,.23-6.84,4.67,4.67,0,0,1,2.89.45,20.16,20.16,0,0,1,2.8,1.29c.59.36,1.07.66,1.42.91a24,24,0,0,1,12.89,0l1.27-.81a17.82,17.82,0,0,1,3.09-1.48,4.37,4.37,0,0,1,2.72-.36,8.94,8.94,0,0,1,.26,6.84,9.76,9.76,0,0,1,2.65,6.91,17.24,17.24,0,0,1-.68,5.05,10.35,10.35,0,0,1-1.78,3.52A9.19,9.19,0,0,1,50,42.32a13.54,13.54,0,0,1-3.15,1.31,23.68,23.68,0,0,1-3.44.61q1.74,1.5,1.74,4.76v7.08a2.13,2.13,0,0,0,1.75,1.24Z"/></g></g></svg>