<?xml version="1.0" encoding="UTF-8"?>
<svg width="20px" height="20px" viewBox="0 0 20 20" version="1.1" xmlns="http://www.w3.org/2000/svg" xmlns:xlink="http://www.w3.org/1999/xlink">
    <!-- Generator: Sketch 58 (84663) - https://sketch.com -->
    <title>icon_twitter</title>
    <desc>Created with Sketch.</desc>
    <defs>
        <linearGradient x1="76.1466667%" y1="12.6933333%" x2="22.2266667%" y2="89.64%" id="linearGradient-1">
            <stop stop-color="#62BDC8" offset="0%"></stop>
            <stop stop-color="#517DAF" offset="48%"></stop>
            <stop stop-color="#555CCF" offset="100%"></stop>
        </linearGradient>
    </defs>
    <g id="icon_twitter" stroke="none" stroke-width="1" fill="none" fill-rule="evenodd">
        <g fill-rule="nonzero">
            <rect id="Rectangle" fill="url(#linearGradient-1)" x="0" y="0" width="20" height="20" rx="8.04"></rect>
            <path d="M15.8453333,6.4 C15.4349189,6.57624267 14.9976293,6.68173315 14.552,6.712 C15.1226667,6.488 15.312,5.6 15.312,5.6 C14.9296254,5.78469327 14.5359504,5.94501339 14.1333333,6.08 L14.1333333,6.08 C13.4587733,5.3570915 12.4099068,5.12185778 11.4912256,5.48744336 C10.5725445,5.85302893 9.97208732,6.74460454 9.97866667,7.73333333 L10.0506667,8.312 C10.0506667,8.312 7.04533333,8.26666667 5.17866667,5.86666667 C5.17866667,5.86666667 3.84533333,7.2 5.712,9.06666667 C5.712,9.06666667 4.912,9.06666667 4.64533333,8.8 C4.64533333,8.8 4.64533333,10.4 6.77866667,11.2 C6.77866667,11.2 5.97866667,11.4666667 5.44533333,11.2 C5.44533333,11.2 6.24533333,12.8 7.84533333,12.8 C7.84533333,12.8 5.744,14.0133333 4.15466667,13.6 C5.26232431,14.2905778 6.54005296,14.6598635 7.84533333,14.6666667 C9.68416766,14.6666667 11.4476881,13.9361926 12.7479403,12.6359403 C14.0481926,11.3356881 14.7786667,9.57216766 14.7786667,7.73333333 C14.7786667,7.67466667 14.7786667,7.61866667 14.7786667,7.56266667 C15.172867,7.2124253 15.5302759,6.82284952 15.8453333,6.4 L15.8453333,6.4 Z" id="Path" fill="#FFFFFF"></path>
        </g>
    </g>
</svg>