<?xml version="1.0" encoding="UTF-8"?>
<svg width="20px" height="20px" viewBox="0 0 20 20" version="1.1" xmlns="http://www.w3.org/2000/svg" xmlns:xlink="http://www.w3.org/1999/xlink">
    <!-- Generator: Sketch 58 (84663) - https://sketch.com -->
    <title>icon_github</title>
    <desc>Created with Sketch.</desc>
    <defs>
        <linearGradient x1="76.1466667%" y1="12.6933333%" x2="22.2266667%" y2="89.64%" id="linearGradient-1">
            <stop stop-color="#62BDC8" offset="0%"></stop>
            <stop stop-color="#517DAF" offset="48%"></stop>
            <stop stop-color="#555CCF" offset="100%"></stop>
        </linearGradient>
    </defs>
    <g id="icon_github" stroke="none" stroke-width="1" fill="none" fill-rule="evenodd">
        <g fill-rule="nonzero">
            <rect id="Rectangle" fill="url(#linearGradient-1)" x="0" y="0" width="20" height="20" rx="8.04"></rect>
            <path d="M8.16,15.2853333 C8.36572478,15.2672481 8.54641095,15.1413768 8.63466667,14.9546667 C8.63466667,14.936 8.63466667,14.776 8.63466667,14.472 C8.63466667,14.168 8.63466667,13.9013333 8.63466667,13.672 L8.42666667,13.7093333 C8.26260655,13.7345262 8.0965526,13.7443466 7.93066667,13.7386667 C7.72226152,13.7346511 7.51450134,13.7141426 7.30933333,13.6773333 C7.09117268,13.636778 6.88562641,13.5454241 6.70933333,13.4106667 C6.52554533,13.2719702 6.38872475,13.0802352 6.31733333,12.8613333 L6.22666667,12.656 C6.15306994,12.4927298 6.05897969,12.3394971 5.94666667,12.2 C5.84540505,12.0573073 5.71204694,11.9403906 5.55733333,11.8586667 L5.49333333,11.8133333 C5.45007062,11.7836139 5.41143193,11.7476709 5.37866667,11.7066667 C5.34474222,11.6694567 5.31684928,11.6271674 5.296,11.5813333 C5.28,11.5386667 5.296,11.5066667 5.34133333,11.4773333 C5.42585859,11.4432839 5.51720463,11.429582 5.608,11.4373333 L5.78666667,11.464 C5.94753947,11.5069093 6.09870646,11.5802298 6.232,11.68 C6.4086228,11.8007221 6.55618533,11.9592152 6.664,12.144 C6.78275978,12.3672377 6.95273868,12.5591494 7.16,12.704 C7.33235813,12.8244225 7.53646189,12.8912201 7.74666667,12.896 C7.91758525,12.8993809 8.08836524,12.8841805 8.256,12.8506667 C8.39504701,12.8223936 8.53022446,12.7776329 8.65866667,12.7173333 C8.68771154,12.3671292 8.84427745,12.0397641 9.09866667,11.7973333 C8.78926817,11.766006 8.48263891,11.7116328 8.18133333,11.6346667 C7.88756495,11.5545694 7.60526741,11.4371695 7.34133333,11.2853333 C7.06303882,11.1352362 6.81738281,10.9312782 6.61866667,10.6853333 C6.40048415,10.4049894 6.23594753,10.0867647 6.13333333,9.74666667 C6.00562305,9.31398962 5.94447911,8.86440182 5.952,8.41333333 C5.93654981,7.72628507 6.19345697,7.06101054 6.66666667,6.56266667 C6.44612353,5.97031182 6.46816329,5.31486839 6.728,4.73866667 C6.99111108,4.69511469 7.26125388,4.73717845 7.49866667,4.85866667 C7.75597101,4.95410728 8.00558955,5.06911011 8.24533333,5.20266667 C8.40266667,5.29866667 8.53066667,5.37866667 8.624,5.44533333 C9.74834075,5.13188752 10.9369926,5.13188752 12.0613333,5.44533333 L12.4,5.22933333 C12.6613531,5.07161755 12.9372948,4.93945129 13.224,4.83466667 C13.4492019,4.72562772 13.7035191,4.69196808 13.9493333,4.73866667 C14.2135047,5.31339308 14.2384461,5.96954447 14.0186667,6.56266667 C14.4869914,7.06030087 14.7408151,7.72215828 14.7253333,8.40533333 C14.7319272,8.86072616 14.6708154,9.31457118 14.544,9.752 C14.4474142,10.0924244 14.286266,10.4110995 14.0693333,10.6906667 C13.8649602,10.9348187 13.6149679,11.1368052 13.3333333,11.2853333 C13.0691816,11.4367275 12.7869418,11.5541034 12.4933333,11.6346667 C12.191978,11.7114024 11.885366,11.7657725 11.576,11.7973333 C11.8853333,12.064 12.04,12.4871111 12.04,13.0666667 L12.04,14.9546667 C12.124665,15.1408789 12.3029174,15.2671835 12.5066667,15.2853333 L8.16,15.2853333 Z" id="Path" fill="#FFFFFF"></path>
        </g>
    </g>
</svg>