<svg id="Layer_1" data-name="Layer 1" xmlns="http://www.w3.org/2000/svg" viewBox="0 0 609.76 710.72"><defs><style>.cls-1,.cls-3{fill:#eb5781;}.cls-2{fill:#fff;}.cls-3{stroke:#fff;stroke-miterlimit:10;}.cls-4{fill:#e5e5e5;}.cls-5{fill:#4f4e4f;}.cls-6{fill:#e82d56;}.cls-7{fill:#231f20;}</style></defs><title>bean</title><path class="cls-1" d="M983.77,564.76c0-138.89-112.59-251.48-251.48-251.48S480.81,425.87,480.81,564.76V1024h503Z" transform="translate(-427.13 -313.28)"/><circle class="cls-2" cx="197" cy="263.97" r="43.94"/><circle class="cls-2" cx="413.32" cy="263.97" r="43.94"/><polygon class="cls-2" points="507.29 617.53 426.84 617.53 103.03 617.53 103.03 482.22 113.4 480.86 103.03 479.29 103.03 476.13 122.18 473.77 103.03 470.95 103.03 430.95 419.63 441.77 507.29 430.95 507.29 617.53"/><path class="cls-3" d="M521.6,845.63s-37.82-6.68-37.82-37.82l-3-85.22s-53.19-5.4-53.19,82.48c0,74,66.59,90,87.66,93.21a26.7,26.7,0,1,0,6.31-52.65Z" transform="translate(-427.13 -313.28)"/><path class="cls-3" d="M942.42,845.63s37.82-6.68,37.82-37.82l3-85.22s53.18-5.4,53.18,82.48c0,74-66.59,90-87.65,93.21a26.7,26.7,0,1,1-6.32-52.65Z" transform="translate(-427.13 -313.28)"/><polygon class="cls-4" points="419.63 441.77 419.63 606.72 452.03 437.77 419.63 441.77"/><circle class="cls-5" cx="197" cy="263.97" r="26.25"/><circle class="cls-5" cx="413.32" cy="263.97" r="26.25"/><path class="cls-6" d="M607.34,653.64a9.47,9.47,0,0,0,0,18.93h25a9.47,9.47,0,0,0,0-18.93Z" transform="translate(-427.13 -313.28)"/><path class="cls-6" d="M828,653.64a9.47,9.47,0,0,0,0,18.93h25a9.47,9.47,0,0,0,0-18.93Z" transform="translate(-427.13 -313.28)"/><circle class="cls-2" cx="174.22" cy="250.93" r="9.46"/><circle class="cls-2" cx="435.83" cy="250.93" r="9.46"/><circle class="cls-2" cx="213.62" cy="284.29" r="4.85"/><circle class="cls-2" cx="397.05" cy="284.29" r="4.85"/><path class="cls-7" d="M632.47,828.44c0,.27-.25.6-.73,1a2,2,0,0,0-.79,1.32,3.44,3.44,0,0,1-.93,1.06q-.19.8-1.32,1l-1.18.92-.86,1.59H626a6.32,6.32,0,0,1-1.19,1.25c-.13.05-.51.22-1.12.53l-1.39,1.52-1.85,1.32-.59.19-.59,1.06-1.46.86-.72.73-.66,1.65-2.45,2.7-.79,1.19-.33.66.4.66-.53,1.19.33,1.12-.53,1.52.13.92.47,1.85a3.55,3.55,0,0,0-1,2.18,8.59,8.59,0,0,0,.16,1.39,8.65,8.65,0,0,1,.17,1.32l-.53,2.9.13,1.65-.26.6.46,2.37-.53.79.46,1.19-.39.6.26.52a1.94,1.94,0,0,1,.2.86v.33l-.46,1.65.39,1.79-.59,1.25.59.79v.46a6.85,6.85,0,0,1-.75,3.73,3.07,3.07,0,0,1-2.72,1.09l-.59-3.16-.58-1.9-.07-1.25-.85-.53.56-1.34-.28-.92.27-2-.4-2.11.2-1.65v-.47a2.41,2.41,0,0,1-.07-.52,1.73,1.73,0,0,1,.07-.47V867l-.33-3,.33-1.45-.2-1.59.4-2.64-.6-1,.33-1.59-.07-1.25-.52-1.19a5,5,0,0,0,.52-1.85,1.05,1.05,0,0,0-.13-.59l-.26-1.19-.4-1.12-.66-.53-.39-.6a11.38,11.38,0,0,1-3-2.9l-1.06-.66-.92-1.72-2.64-2.37-.53-.93-1.06-1.32-2-1.58v-.66l-1-.66c-.18-1.1-.64-1.65-1.39-1.65a5.14,5.14,0,0,1-2.77-4.63l.33-1.71h.79a2.2,2.2,0,0,1,1.46-.4,9.42,9.42,0,0,1,2.77.6l.46,1,1.06.33,1.19,1.85,1.71,1.25.07.6,1.38,2.18,1,.72,3.63,5,1.19,1.52q2.38,2.44,3.7,4V845a2.48,2.48,0,0,1,.79-1.65l-.06.33a5.45,5.45,0,0,1,1.12-1.72,2.34,2.34,0,0,1,.92-1.45,4.3,4.3,0,0,1,1.26-1.45l.59-.26.2-.27a2.31,2.31,0,0,1,2.37-1.71l.14.26.59-1.12c.53-.14.75-.2.66-.2l1-1.19.46-.86A4.3,4.3,0,0,1,622.3,832v-.8l.46-.52.66-.53.4-1.39a.6.6,0,0,0,.53.33c.39,0,.75-.53,1-1.58l2-.86,1.06-1.06,1.85.14,1.38-.4.6,1.39A9.87,9.87,0,0,1,632.47,828.44Z" transform="translate(-427.13 -313.28)"/><path class="cls-7" d="M658.87,846.26l-.39,1.19a14.63,14.63,0,0,1-.2,2.71l-.4.66v.72l-.33.47-.2.92-.72.73-.46,1.65-.53.2-.27.72-.79.46-.53,1.13-.79.39-.07.79-1.25.47a3.76,3.76,0,0,1-2.11,1.51l-.27.07a2.82,2.82,0,0,1-2.44,1.39,2.94,2.94,0,0,1-1.52.39l-.66.46-.66.2-.86.66h-.85l-.93.2-1.12-.46-2.84-.2-1-1.52-1.45-1.52.33-1-1-2.25.33-.85-.2-1.59.2-1V852.6a2.36,2.36,0,0,1,.68-1.85,7.1,7.1,0,0,1,.89-2.17h.34l-.19-.47.19-.92v-1a3.58,3.58,0,0,0,.6-.79l-.2-.93v-.26a4.24,4.24,0,0,0,.46-1.92l1.39-1.91c.22-.18.37-.31.46-.4l-.07-.26h.27l1-1.12.06-1.52,1.65-.59a2.83,2.83,0,0,0,1.19-2h.86a2.84,2.84,0,0,1,1.32-.39,2.52,2.52,0,0,1,1.12.26l.73.07,1.72-.66.92.86.73.46h.52l1,.53h.53a21.09,21.09,0,0,1,2,2.18l.13.33.47.26,1.38,1.78,1.26,3.1V844Zm-4.36,1.57-.06-.33a1.68,1.68,0,0,1-.53-1l.2-.33-.6-1.25.14-1.25-.27-.33c-.57-.44-.88-.79-.92-1.06-.4-.17-.6-.61-.6-1.31l-.39-.07-.79-1.32-.6-.46-1.38-.52-.53-.14a.52.52,0,0,1-.53-.26l-1.32,1.44-.86,1.84-1.39.72-.19.72-.66.33L643,845l-.79.39a6,6,0,0,0-.26,1.71l-1.06,1,.33.2a1.82,1.82,0,0,1-.66,1.38c-.15.39-.35.83-.59,1.31v1.57l-.73,1.78.13.32v1.84l-.26.92.06.92.6.85.92.33.33.13h2.24l.26-.66h.27c.26,0,.42.06.46.2l.59-.2.53.2.86-.6.13-.2.59-.13a4.81,4.81,0,0,1,2.18-1.47l.13-.33,1.32-.93.72-1.07,1.06-.52.07-.33.34-.73V852l.79-.66.27-.46.33-.4a4.13,4.13,0,0,1-.27-1.12,2.5,2.5,0,0,1,.4-1.25Z" transform="translate(-427.13 -313.28)"/><path class="cls-7" d="M700.59,857.88a3.05,3.05,0,0,1-1.19,1.92l-.53.2-.46.59-1.19.33c-.22.31-.44.46-.66.46a.17.17,0,0,1-.13-.07h-.2a7.67,7.67,0,0,1-3.5.73h-.52l-1.65-.33-1.13-.53-2.51-2.11-.52-1.78-1.06-.86a1.47,1.47,0,0,0,.2-.86,3.37,3.37,0,0,0-.53-1.32l.2-1.58v-.27a6.42,6.42,0,0,0-.46-2l.39-2-.86,1.71-1,.13-.13,1.39a2.71,2.71,0,0,1-1.25.27l-.73,1.58-.86,1a1.77,1.77,0,0,1-.92.66l-.2.13-2.37,2.44h-.27l-1.25,1.5-1.19.61-.66.89-1.52.48-2.18.88-1.32-.67a1.88,1.88,0,0,1-1.85-1.2l-.59-.33a2.64,2.64,0,0,1,.07-.54v-.46L665,857.9l.26-.4-.79-1.87.27-.26v-.54a.5.5,0,0,1-.2-.33,6.33,6.33,0,0,1,.15-1.4l0-1.74-.2-1.4a2.74,2.74,0,0,0,.2-.92,1.49,1.49,0,0,0-.27-.86l.73-.53v-.79l-.27-2.18.73-4.22a12.52,12.52,0,0,0-.59-3.11c.13-1.4,1-2.18,2.77-2.31l.53.2.92.13,1.19,1.33-.53,1.71v2.85l.2,2.18-.4.79.2.53-.53,1.06v1.45a12.24,12.24,0,0,1-.13,1.78l.13.47-.14,1,.11.78,0,.92a1.19,1.19,0,0,1,.53,1,1.52,1.52,0,0,1-.53,1v.27a6.88,6.88,0,0,1,.35,1.45l.62.59c.28-.17.6-.39,1-.66a1.26,1.26,0,0,1,1-.86v-.66a5.78,5.78,0,0,0,1.25-.2l.13-.59,1.12-.46.2-.2a4.28,4.28,0,0,1,1.52-.86v-.27l1.26-.92a2.52,2.52,0,0,1,1.65-1.65,5,5,0,0,1,1-.86l.85-1.12v-.2l.27-.13.59-.27.33-.92,1.39-.6.26-.07.46-.46V844l.39-.13a2.25,2.25,0,0,1,1-1.59l1-2.25.37-1.17.14-.26h.27l.48-.33-.4-.13a10.83,10.83,0,0,0,1.12-2.51l1.92-.07,1.51,1.26.66,1-.72,2.84-1,1.32-.79,2.57-.66.4v1l-.4.73.2,1.19-.53.46.26,2.11.14,3h.33v1.72l.92,1.12.86.46.06.33a5.19,5.19,0,0,1,1.13.33l1.65.13,1-.26,1.78-.86a2.88,2.88,0,0,1,1.32-.26Q700.59,856.17,700.59,857.88Z" transform="translate(-427.13 -313.28)"/><path class="cls-7" d="M768.78,860.39l-.4-.13-.59.86-1.52.19-1.32.47-1.85-.4-.33.13-1.25.86a4.26,4.26,0,0,0-1.13-.66l-1.18,1.12-.93-.92-.4.13-.42-.4-.3-.26h-2.84l-.46-.53-1.32-.33c-.66-.17-1.3-.37-1.92-.59h-.79l-.59-.66H749a1.72,1.72,0,0,1-1.15-.66,3.62,3.62,0,0,0-.83-.73c-.88-.44-1.78-.91-2.7-1.42a5.1,5.1,0,0,1-2.11-2.08,7,7,0,0,1-2.12-1.58l-1.85-1.45L736,849.24l-.47-.2-1.25-1.19-.46-.07-.2.07a2.47,2.47,0,0,1-.79.13,2.54,2.54,0,0,1-.86-.16c-.31-.11-.53-.83-.66-2.15l.59-.66a4.87,4.87,0,0,1,1.32-2.24l1.85-.2v.13a.61.61,0,0,0,.2.4h.92c0,.26.4.39,1.06.39a21.63,21.63,0,0,0,2.64-.2v-.39a15.53,15.53,0,0,0,2.38.13,16.4,16.4,0,0,0,3.56-.33l.86-.4,1.45-.26,1.85-.2.26.07.33-.13a13.23,13.23,0,0,1,1.79-.47l.53-.19.59-.33h.26l.73-.53,1.91-.6c.44-.22.66-.39.66-.52a.7.7,0,0,0-.33-.53l-1.65-1.45-.66-.14-.4-.26a2.48,2.48,0,0,0-1.12-.59l-.86,0-1.39-.53-.92,0-.86-.8h-1.32l-.66-.06-3.76-.27-.2-.06-.26.06-.93-.19-.59.13-2-.25-2.17.35-1.12-.31-1.06.13-.8-.16-1.05.44-.52-.2-1,.39H731a4.25,4.25,0,0,0-.13.8.54.54,0,0,0,.07.27v.26l-.17,3.32a4.43,4.43,0,0,0-.16,1.19,3.37,3.37,0,0,0,.66,2l-.66.93.26,1.73-.46,1.72a11.51,11.51,0,0,0-.4,3v3.05l.47,3.92.13.53-.6,2.52v.53c0,1.15-1.41,1.72-4.22,1.72l.46-3.49-.26-.66-.8-3.37a2.69,2.69,0,0,1-.19-.92,3.34,3.34,0,0,1,.33-1.32,1.19,1.19,0,0,1-.4-.86,3.88,3.88,0,0,1,.59-1.72,3.42,3.42,0,0,1-.19-1.19v-1.85a4.93,4.93,0,0,0,.66-1,7.51,7.51,0,0,0-.66-1.26l.52-1.32-.19-1.12.26-.26.07-.66-.66-2.64.33-1.19-.33-2.18h-1.59L722.11,837a4.62,4.62,0,0,0-2.11-1.61,2.47,2.47,0,0,1-1.06-1.89,3.19,3.19,0,0,1,.92-1.95l1.52-1,2.38-.2H726a2.7,2.7,0,0,1,2.78-1.52h1.78L731,830l1.13-.4,1.84.33,2.51-.33,3.63.47h5l2.38.33h2.38l.19.33h.66v-.2l4.36,1.65,1.78.79,1.39.13.53.6c2,1.49,3.1,3.08,3.36,4.75l-.06.33a4.27,4.27,0,0,1-1.19,2.18l-2.71,2.7-1.65.14-.33.13a7.13,7.13,0,0,1-2.57.79l-.53.46-2,.53h-.34a1.9,1.9,0,0,0-1,.26L748,847.32l-1.38-.79-.2.06-.73.4-.46-.46a2.45,2.45,0,0,1-.66.79l-1.25-.46-1.19.46-.33-.26-.4.13.2.13.54.71,2.48,2,.73,1.06.66.65.39.93,1.52.06,2.18,2,1,.4,1.39.79,1.32.32,1.65.6.93-.07.79-.46.33.86,1.12-.2.2.39.79.2,2.25-.2.92.2,2.91-.53,2.11-.46.34-.59H769l1.25-1.52c1.06,1.19,1.59,2.11,1.59,2.77l.07.33C772,858,770.89,858.94,768.78,860.39Z" transform="translate(-427.13 -313.28)"/><path class="cls-7" d="M795,846.26l-.39,1.19a14.63,14.63,0,0,1-.2,2.71l-.4.66v.72l-.33.47-.2.92-.72.73-.46,1.65-.53.2-.27.72-.79.46-.53,1.13-.79.39-.06.79-1.26.47a3.76,3.76,0,0,1-2.11,1.51l-.27.07a2.82,2.82,0,0,1-2.44,1.39,2.91,2.91,0,0,1-1.52.39l-.66.46-.66.2-.85.66h-.86l-.93.2-1.12-.46-2.84-.2-1-1.52-1.45-1.52.33-1-1-2.25.33-.85-.2-1.59.2-1V852.6a2.36,2.36,0,0,1,.68-1.85,7.38,7.38,0,0,1,.89-2.17h.34l-.19-.47.19-.92v-1a3.58,3.58,0,0,0,.6-.79l-.2-.93v-.26a4.24,4.24,0,0,0,.46-1.92l1.39-1.91c.22-.18.37-.31.46-.4l-.06-.26h.26l1-1.12.07-1.52,1.65-.59a2.86,2.86,0,0,0,1.18-2h.86a2.88,2.88,0,0,1,1.32-.39,2.52,2.52,0,0,1,1.12.26l.73.07,1.72-.66.92.86.73.46h.53l1,.53h.52a19,19,0,0,1,2,2.18l.14.33.46.26,1.38,1.78,1.26,3.1V844Zm-4.35,1.57-.07-.33a1.74,1.74,0,0,1-.53-1l.2-.33-.59-1.25.13-1.25-.27-.33c-.57-.44-.88-.79-.92-1.06-.4-.17-.59-.61-.59-1.31l-.4-.07-.79-1.32-.6-.46-1.38-.52-.53-.14a.52.52,0,0,1-.53-.26l-1.32,1.44-.86,1.84-1.38.72-.2.72-.66.33-.27,1.71-.79.39a6.41,6.41,0,0,0-.26,1.71l-1.06,1,.33.2a1.82,1.82,0,0,1-.66,1.38c-.15.39-.35.83-.59,1.31v1.57l-.73,1.78.13.32v1.84l-.26.92.07.92.59.85.92.33.33.13h2.24l.27-.66h.26c.26,0,.42.06.46.2l.59-.2.53.2.86-.6.13-.2.59-.13a4.87,4.87,0,0,1,2.18-1.47l.13-.33,1.32-.93.72-1.07,1.06-.52.07-.33.34-.73V852l.8-.66.26-.46.33-.4a4,4,0,0,1-.26-1.12,2.48,2.48,0,0,1,.39-1.25Z" transform="translate(-427.13 -313.28)"/><path class="cls-7" d="M824.36,851.41l-1.26,1.19-.06.4a3,3,0,0,1-1.13,1.91,9.86,9.86,0,0,1-4.42,4.36l-1,.79-.86.13-1,.79-.73.07-1.65,1.06-1.06-.14-1.18.66-.93-.39-.46.39-1.25-.19-1.26.19-.46-.39-1.32-.27-1.91-1.45-1.06-1.32a3.71,3.71,0,0,1-1-2.11v-.2l-.66-1V855a6.07,6.07,0,0,1-.2-1.45v-.46l-.33-1.12.33-.8-.26-.52.79-1.26-.2-1,.53-1.72.26-.4.27-1.58-.14-.26.8-.86.13-.66.53-1.52.86-1.85,1.18-1,.27-.6.39-.72.14-.66,1.05-1.26c.26-.09.57-.17.93-.26.17-.84,1.27-1.32,3.3-1.46a6.24,6.24,0,0,1,3.3,1.39,1.9,1.9,0,0,1,1.12.59l1.39.07.92,1.19a5.73,5.73,0,0,1,.45,1.32l.51.52-.2,1a10.19,10.19,0,0,1,.07,1.45l.36.27v1l.26,2.05a5.28,5.28,0,0,1-3.21,1.58,6.71,6.71,0,0,0-2.33-2.59v-2.19l-.47-.73,0-.53-.68-.77-.33-.25-.6.2h-.86a3,3,0,0,0-1.66,1.25c-.53.7-1.06,1.45-1.59,2.24l-.07.66-.4.32v1.19l-.85.92-1.06,2.9.07.79-.53,1.18.2,1.45-.4.2-.13,1.84.07.33.79.79.33,1.38.93.26.07.53,1.12.22.85.23a2.33,2.33,0,0,1,1.13-.26h.46a3.81,3.81,0,0,1,1.45-.33,7.8,7.8,0,0,1,1.19-.4,2.63,2.63,0,0,1,2.24-1.06h.4a.47.47,0,0,0,.46-.33,3.44,3.44,0,0,1,2.31-1.45,6.75,6.75,0,0,0,2.11-2.64,2.48,2.48,0,0,0,1.19-1.65l.39-.26.2-1.52c2,.31,3,1.32,3,3Z" transform="translate(-427.13 -313.28)"/><path class="cls-7" d="M867.13,856.83l-.39.72a3.6,3.6,0,0,1-1.32,3,1.34,1.34,0,0,1-.47,1.06l-.33.72-.85.6-.4.72L860.73,865l-1.26.33-1.91.13L856.5,865h-.85l-.86-.58-.66-.07L851.49,863l-2.38-2c-.7-.61-1.76-1.49-3.17-2.64l-1.45-2-1.19-1-.2-.46-.59-.73a28.16,28.16,0,0,0-2-2.24l-1.12-.4-1.25-2.51.2-1a2.53,2.53,0,0,1,2.11-2.37l1.25.39,1.06,1.06,1.12.73h1.06l.26.19a4.87,4.87,0,0,1,.86.07,12.45,12.45,0,0,1,2.31-.73l.59-.13.4-.86h1.58a2.85,2.85,0,0,1,1.52-.66h.13c.14-.3.31-.68.53-1.12l1.26-.59.52-.53,1-1.65h.47a12.79,12.79,0,0,0,.52-1.85l.6-.4-.46-.26.26-1.12a1.19,1.19,0,0,0-.72-.46l-.79.26-.26-.53-.67-.27-.19-.26c-.67-.09-1.61-.17-2.85-.26v-.13h-1.19a5.94,5.94,0,0,0-2.51.92h-.92a9.44,9.44,0,0,0-2.84,1.25l-1.45.46-2.05,1.65-1.91,1.9,0,.27-1.25,2.18-.38,1.25-.26.14v.26c-.13.27-.24.51-.33.73l-.39.2.13.19-.2.34a.75.75,0,0,0-.06.33.8.8,0,0,0,.26.59c0,.92-.2,1.52-.6,1.78a1.18,1.18,0,0,0-.13.53v.33a3.36,3.36,0,0,1-.46,1.85,2.4,2.4,0,0,0-.39.46v3.37a5.71,5.71,0,0,0-.47,1.92v.73a2.86,2.86,0,0,1-2.28,2.31,2.61,2.61,0,0,1-1.84-1.12l-.69-2.05v-6.53l.26-.86v-.73c0-.88,0-1.77.13-2.67s.13-1.38.13-1.42v-1.12l.07-.6v-1.85l.26-.52-.26-.8.26-2.18v-2.3l-.26-1.32.26-.53-.07-.27-.28-7.62-.5-6.64v-4.61l.52-3.05-.26-1.88-.13-2.52c-.09-1-.13-2.75-.13-2.62q0-2.31,3.58-2.44l1.43-.8-.2,4.48.2,2.78-.39,2.94.11,2.92.28,5-.2,4.5.2,2.12-.2,3.88.2,3.68v.33l.27.66-.47,1.85v.4l.47,1.25c-.21.09-.31.42-.31,1l-.19,1.58.1.6.79-1.39.4-1.52.92-1.52a1.77,1.77,0,0,1,.46-1.18h.73l.53-1.13,1.52-.72a5.23,5.23,0,0,1,2.11-1.32l.4-.33,1-.53.86-.2c.92-.79,2.93-1.32,6-1.58l5.15.39,1,.6.53.06,1.12,1.19.07-.4a2.52,2.52,0,0,1,1.25,1.26c.22,0,.31-.07.27-.07a.87.87,0,0,1,.52.2l1.39,2.84-.06.33a2.86,2.86,0,0,1,.33,1.19,3,3,0,0,1-.73,1.85v.39l-.93,2.44-1.38,1.92-.4.06-.79,1.06a1.49,1.49,0,0,1-1.12-.4V848l-.53.33-.4.73-1.18.33c-.18,0-.38.24-.6.59a34.08,34.08,0,0,1-5.08,1.78,4.85,4.85,0,0,1-.76-.1,6.26,6.26,0,0,0-1-.1.94.94,0,0,0-.39.07,15.18,15.18,0,0,0,.73,1.44l.86.53,1.2,2.09,1.79,1.05.13.27.6.33.86,1,1.56,1.29,2.11.87,1.18.33.86-.07.46-.2a5.68,5.68,0,0,0,2.51-1l1.12-2.05.66-.79.4-1.19a5.34,5.34,0,0,1,1.58-.33A2,2,0,0,1,867.13,856.83Z" transform="translate(-427.13 -313.28)"/><path class="cls-7" d="M879.81,831.2l-.23.2-.23,1.13H879l-.23.73H879a8.08,8.08,0,0,0,.34,1.19l-.26.59a5.29,5.29,0,0,1,.13.93,4.43,4.43,0,0,1-.13.79l-.13.59-.2,5.28.37.66-.29,1.7.34,1.33-.42.66a4.06,4.06,0,0,1,.22,1.32l.37,1.13-.39.2V850a1.49,1.49,0,0,1-.2.86v.46c-.26,1.19-.89,1.78-1.88,1.78-1.3,0-2-.85-2-2.57v-1.25l-.13-1.46-.46-1.32.39-.72-.39-.66.39-1.72-.66-.26.27-1.52v-2.11l.08-.73a4.17,4.17,0,0,1,.18-1l-.26-.2v-.39l-.47-.66.73-1-.26-.72.19-.66v-.93a2.69,2.69,0,0,1-.19-.66,1.19,1.19,0,0,1,.19-.59v-.46a3.42,3.42,0,0,1-.07-.53l-.12-.26v-1.46l-.73-.59.26-3.1,1.92.26,1.05-.26,2.45.73.33.93a8.27,8.27,0,0,1,.06,1.14,2.3,2.3,0,0,1-.06.6l-.2.4-.13.2Zm1.32,28-.2.94a4.43,4.43,0,0,0-.13.81l-1.72,1.28-1.12-.46-1,.46-.93-.53h-1.38l-.8-2.51.53-1.65,1-.92.27-.07.66-.66a6.07,6.07,0,0,1,1.45.34,2.61,2.61,0,0,1,1.52.34,4.53,4.53,0,0,1-.53.33l1.37.21.44.87Z" transform="translate(-427.13 -313.28)"/></svg>