<svg xmlns="http://www.w3.org/2000/svg" xmlns:xlink="http://www.w3.org/1999/xlink" width="75" height="75" viewBox="0 0 75 75"><defs><style>.cls-1{fill:url(#linear-gradient);}.cls-2{fill:#fff;}</style><linearGradient id="linear-gradient" x1="57.11" y1="9.52" x2="16.67" y2="67.23" gradientUnits="userSpaceOnUse"><stop offset="0" stop-color="#62bdc8"/><stop offset="0.48" stop-color="#517daf"/><stop offset="1" stop-color="#555ccf"/></linearGradient></defs><title>medium</title><g id="Layer_2" data-name="Layer 2"><g id="Layer_1-2" data-name="Layer 1"><rect class="cls-1" width="75" height="75" rx="8.04"/><polygon class="cls-2" points="17.6 53.36 30.36 53.36 30.36 52.28 25.08 47.01 25.08 31.36 35.12 53.36 36.83 53.36 45.5 31.36 45.5 49.36 42.37 52.49 42.37 53.36 57.4 53.36 57.4 51.93 54.45 48.98 54.45 26.21 57.26 23.41 57.26 21.64 46.64 21.64 38.83 41.17 30.36 22.21 18.45 22.21 18.45 23.45 22.69 27.69 22.69 47.26 17.63 52.32 17.6 53.36"/></g></g></svg>