<svg xmlns="http://www.w3.org/2000/svg" xmlns:xlink="http://www.w3.org/1999/xlink" width="75" height="75" viewBox="0 0 75 75"><defs><style>.cls-1{fill:url(#linear-gradient);}.cls-2{fill:#fff;}</style><linearGradient id="linear-gradient" x1="57.11" y1="9.52" x2="16.67" y2="67.23" gradientUnits="userSpaceOnUse"><stop offset="0" stop-color="#62bdc8"/><stop offset="0.48" stop-color="#517daf"/><stop offset="1" stop-color="#555ccf"/></linearGradient></defs><title>instagram</title><g id="Layer_2" data-name="Layer 2"><g id="Layer_1-2" data-name="Layer 1"><rect class="cls-1" width="75" height="75" rx="8.04"/><path class="cls-2" d="M44,25H31.05A6.06,6.06,0,0,0,25,31.05V44a6.06,6.06,0,0,0,6.05,6H44a6.06,6.06,0,0,0,6-6V31.05A6.06,6.06,0,0,0,44,25ZM37.5,45A7.5,7.5,0,1,1,45,37.5,7.5,7.5,0,0,1,37.5,45Zm8-14A1.5,1.5,0,1,1,47,29.5,1.5,1.5,0,0,1,45.5,31Z"/><circle class="cls-2" cx="37.5" cy="37.5" r="5.5"/><path class="cls-2" d="M48.73,18H26.27A8.27,8.27,0,0,0,18,26.27V48.73A8.27,8.27,0,0,0,26.27,57H48.73A8.27,8.27,0,0,0,57,48.73V26.27A8.27,8.27,0,0,0,48.73,18ZM52,44a8.06,8.06,0,0,1-8,8H31.05a8.06,8.06,0,0,1-8-8V31.05a8.06,8.06,0,0,1,8.05-8H44a8.06,8.06,0,0,1,8,8.05Z"/></g></g></svg>