<svg xmlns="http://www.w3.org/2000/svg" xmlns:xlink="http://www.w3.org/1999/xlink" width="75" height="75" viewBox="0 0 75 75"><defs><style>.cls-1{fill:url(#linear-gradient);}.cls-2{fill:#fff;}</style><linearGradient id="linear-gradient" x1="57.11" y1="9.52" x2="16.67" y2="67.23" gradientUnits="userSpaceOnUse"><stop offset="0" stop-color="#62bdc8"/><stop offset="0.48" stop-color="#517daf"/><stop offset="1" stop-color="#555ccf"/></linearGradient></defs><title>twitter</title><g id="Layer_2" data-name="Layer 2"><g id="Layer_1-2" data-name="Layer 1"><rect class="cls-1" width="75" height="75" rx="8.04"/><path class="cls-2" d="M59.42,24a14.84,14.84,0,0,1-4.85,1.17c2.14-.84,2.85-4.17,2.85-4.17A37.76,37.76,0,0,1,53,22.8h0A9,9,0,0,0,37.42,29l.27,2.17S26.42,31,19.42,22c0,0-5,5,2,12,0,0-3,0-4-1,0,0,0,6,8,9,0,0-3,1-5,0,0,0,3,6,9,6,0,0-7.88,4.55-13.84,3a26.42,26.42,0,0,0,13.84,4,26,26,0,0,0,26-26c0-.22,0-.43,0-.64A29.05,29.05,0,0,0,59.42,24Z"/></g></g></svg>