<?xml version="1.0" encoding="UTF-8"?>
<svg width="20px" height="20px" viewBox="0 0 20 20" version="1.1" xmlns="http://www.w3.org/2000/svg" xmlns:xlink="http://www.w3.org/1999/xlink">
    <!-- Generator: Sketch 58 (84663) - https://sketch.com -->
    <title>icon_instagram</title>
    <desc>Created with Sketch.</desc>
    <defs>
        <linearGradient x1="76.1466667%" y1="12.6933333%" x2="22.2266667%" y2="89.64%" id="linearGradient-1">
            <stop stop-color="#62BDC8" offset="0%"></stop>
            <stop stop-color="#517DAF" offset="48%"></stop>
            <stop stop-color="#555CCF" offset="100%"></stop>
        </linearGradient>
    </defs>
    <g id="icon_instagram" stroke="none" stroke-width="1" fill="none" fill-rule="evenodd">
        <g fill-rule="nonzero">
            <rect id="Rectangle" fill="url(#linearGradient-1)" x="0" y="0" width="20" height="20" rx="8.04"></rect>
            <path d="M11.7333333,6.66666667 L8.28,6.66666667 C7.38958943,6.66813478 6.66813478,7.38958943 6.66666667,8.28 L6.66666667,11.7333333 C6.67543031,12.6185326 7.39475852,13.3319159 8.28,13.3333333 L11.7333333,13.3333333 C12.6133723,13.3246624 13.3246624,12.6133723 13.3333333,11.7333333 L13.3333333,8.28 C13.3319159,7.39475852 12.6185326,6.67543031 11.7333333,6.66666667 Z M10,12 C8.8954305,12 8,11.1045695 8,10 C8,8.8954305 8.8954305,8 10,8 C11.1045695,8 12,8.8954305 12,10 C12,11.1045695 11.1045695,12 10,12 Z M12.1333333,8.26666667 C11.9124194,8.26666667 11.7333333,8.08758057 11.7333333,7.86666667 C11.7333333,7.64575277 11.9124194,7.46666667 12.1333333,7.46666667 C12.3542472,7.46666667 12.5333333,7.64575277 12.5333333,7.86666667 C12.5333333,8.08758057 12.3542472,8.26666667 12.1333333,8.26666667 L12.1333333,8.26666667 Z" id="Shape" fill="#FFFFFF"></path>
            <circle id="Oval" fill="#FFFFFF" cx="10" cy="10" r="1.46666667"></circle>
            <path d="M12.9946667,4.8 L7.00533333,4.8 C5.78736137,4.8 4.8,5.78736137 4.8,7.00533333 L4.8,12.9946667 C4.8,13.5795574 5.03234695,14.1404926 5.44592718,14.5540728 C5.85950741,14.967653 6.42044257,15.2 7.00533333,15.2 L12.9946667,15.2 C13.5795574,15.2 14.1404926,14.967653 14.5540728,14.5540728 C14.967653,14.1404926 15.2,13.5795574 15.2,12.9946667 L15.2,7.00533333 C15.2,6.42044257 14.967653,5.85950741 14.5540728,5.44592718 C14.1404926,5.03234695 13.5795574,4.8 12.9946667,4.8 Z M13.8666667,11.7333333 C13.857955,12.9079134 12.9079134,13.857955 11.7333333,13.8666667 L8.28,13.8666667 C7.10541997,13.857955 6.15537837,12.9079134 6.14666667,11.7333333 L6.14666667,8.28 C6.15544831,7.10024814 7.11354966,6.14809774 8.29333333,6.14666667 L11.7333333,6.14666667 C12.9130852,6.15544831 13.8652356,7.11354966 13.8666667,8.29333333 L13.8666667,11.7333333 Z" id="Shape" fill="#FFFFFF"></path>
        </g>
    </g>
</svg>